<svg xmlns="http://www.w3.org/2000/svg" viewBox="0 0 800 420" width="800" height="420" role="img">
<defs>
<pattern id="ht" width="14" height="14" patternUnits="userSpaceOnUse">
  <circle cx="3" cy="3" r="1.7" fill="#2A2F55" opacity=".10"/>
</pattern>
</defs>
<rect width="800" height="420" fill="#FFF1DC"/>
<rect width="800" height="420" fill="url(#ht)"/>
<path d="M-20,67 L150,41" stroke="#B5701A" stroke-width="9" stroke-linecap="round" opacity=".22"/><path d="M-20,145 L172,119" stroke="#B5701A" stroke-width="9" stroke-linecap="round" opacity=".22"/><path d="M-20,223 L194,197" stroke="#B5701A" stroke-width="9" stroke-linecap="round" opacity=".22"/><path d="M-20,301 L216,275" stroke="#B5701A" stroke-width="9" stroke-linecap="round" opacity=".22"/><path d="M-20,379 L238,353" stroke="#B5701A" stroke-width="9" stroke-linecap="round" opacity=".22"/>
<polygon points="92.0,302.0 102.6,327.4 130.0,329.6 109.1,347.6 115.5,374.4 92.0,360.0 68.5,374.4 74.9,347.6 54.0,329.6 81.4,327.4" fill="#FFC83D" stroke="#2A2F55" stroke-width="5" stroke-linejoin="round" opacity=".95"/>
<g transform="translate(463.99999999999994,226.8) rotate(4) scale(1.25) translate(-100,-100)">
<rect x="30" y="64" width="140" height="86" rx="10" fill="#B5701A" stroke="#2A2F55" stroke-width="7"/>
<rect x="30" y="64" width="140" height="16" fill="#2A2F55"/>
<rect x="30" y="134" width="140" height="16" fill="#2A2F55"/>
<g fill="#FFF8EC"><rect x="38" y="68" width="12" height="8" rx="2"/><rect x="38" y="138" width="12" height="8" rx="2"/><rect x="62" y="68" width="12" height="8" rx="2"/><rect x="62" y="138" width="12" height="8" rx="2"/><rect x="86" y="68" width="12" height="8" rx="2"/><rect x="86" y="138" width="12" height="8" rx="2"/><rect x="110" y="68" width="12" height="8" rx="2"/><rect x="110" y="138" width="12" height="8" rx="2"/><rect x="134" y="68" width="12" height="8" rx="2"/><rect x="134" y="138" width="12" height="8" rx="2"/></g>
<circle cx="100" cy="107" r="21" fill="#fff" stroke="#2A2F55" stroke-width="6"/>
<path d="M93,97 L113,107 L93,117 Z" fill="#2A2F55"/>
</g>
</svg>