<svg xmlns="http://www.w3.org/2000/svg" viewBox="0 0 800 420" width="800" height="420" role="img">
<defs>
<pattern id="ht" width="14" height="14" patternUnits="userSpaceOnUse">
  <circle cx="3" cy="3" r="1.7" fill="#2A2F55" opacity=".10"/>
</pattern>
</defs>
<rect width="800" height="420" fill="#E3F6E6"/>
<rect width="800" height="420" fill="url(#ht)"/>
<path d="M820,41 L650,15" stroke="#2E9E4F" stroke-width="9" stroke-linecap="round" opacity=".22"/><path d="M820,119 L628,93" stroke="#2E9E4F" stroke-width="9" stroke-linecap="round" opacity=".22"/><path d="M820,197 L606,171" stroke="#2E9E4F" stroke-width="9" stroke-linecap="round" opacity=".22"/><path d="M820,275 L584,249" stroke="#2E9E4F" stroke-width="9" stroke-linecap="round" opacity=".22"/><path d="M820,353 L562,327" stroke="#2E9E4F" stroke-width="9" stroke-linecap="round" opacity=".22"/>
<polygon points="708.0,38.0 718.6,63.4 746.0,65.6 725.1,83.6 731.5,110.4 708.0,96.0 684.5,110.4 690.9,83.6 670.0,65.6 697.4,63.4" fill="#FFC83D" stroke="#2A2F55" stroke-width="5" stroke-linejoin="round" opacity=".95"/>
<g transform="translate(336.0,210.0) rotate(-3) scale(1.5) translate(-100,-100)">
<circle cx="100" cy="100" r="66" fill="#2E9E4F" stroke="#2A2F55" stroke-width="7"/>
<path d="M78,80 C78,62 122,58 122,84 C122,102 100,102 100,120" fill="none" stroke="#fff" stroke-width="14" stroke-linecap="round"/>
<circle cx="100" cy="142" r="9" fill="#fff"/>
</g>
</svg>