<svg xmlns="http://www.w3.org/2000/svg" viewBox="0 0 800 420" width="800" height="420" role="img">
<defs>
<pattern id="ht" width="14" height="14" patternUnits="userSpaceOnUse">
  <circle cx="3" cy="3" r="1.7" fill="#2A2F55" opacity=".10"/>
</pattern>
</defs>
<rect width="800" height="420" fill="#F0E7D6"/>
<rect width="800" height="420" fill="url(#ht)"/>
<path d="M-20,64 L150,38" stroke="#8C2D3A" stroke-width="9" stroke-linecap="round" opacity=".22"/><path d="M-20,142 L172,116" stroke="#8C2D3A" stroke-width="9" stroke-linecap="round" opacity=".22"/><path d="M-20,220 L194,194" stroke="#8C2D3A" stroke-width="9" stroke-linecap="round" opacity=".22"/><path d="M-20,298 L216,272" stroke="#8C2D3A" stroke-width="9" stroke-linecap="round" opacity=".22"/><path d="M-20,376 L238,350" stroke="#8C2D3A" stroke-width="9" stroke-linecap="round" opacity=".22"/>
<polygon points="92.0,302.0 102.6,327.4 130.0,329.6 109.1,347.6 115.5,374.4 92.0,360.0 68.5,374.4 74.9,347.6 54.0,329.6 81.4,327.4" fill="#FFC83D" stroke="#2A2F55" stroke-width="5" stroke-linejoin="round" opacity=".95"/>
<g transform="translate(463.99999999999994,226.8) rotate(4) scale(1.25) translate(-100,-100)">
<path d="M32,60 C56,50 84,50 100,60 L100,152 C84,142 56,142 32,152 Z" fill="#fff" stroke="#2A2F55" stroke-width="7" stroke-linejoin="round"/>
<path d="M168,60 C144,50 116,50 100,60 L100,152 C116,142 144,142 168,152 Z" fill="#8C2D3A" stroke="#2A2F55" stroke-width="7" stroke-linejoin="round"/>
<path d="M46,78 H84 M46,96 H84 M46,114 H76" stroke="#2A2F55" stroke-width="5" stroke-linecap="round"/>
</g>
</svg>