<svg xmlns="http://www.w3.org/2000/svg" viewBox="0 0 800 420" width="800" height="420" role="img">
<defs>
<pattern id="ht" width="14" height="14" patternUnits="userSpaceOnUse">
  <circle cx="3" cy="3" r="1.7" fill="#2A2F55" opacity=".10"/>
</pattern>
</defs>
<rect width="800" height="420" fill="#E3F6E6"/>
<rect width="800" height="420" fill="url(#ht)"/>
<path d="M820,60 L650,34" stroke="#2E9E4F" stroke-width="9" stroke-linecap="round" opacity=".22"/><path d="M820,138 L628,112" stroke="#2E9E4F" stroke-width="9" stroke-linecap="round" opacity=".22"/><path d="M820,216 L606,190" stroke="#2E9E4F" stroke-width="9" stroke-linecap="round" opacity=".22"/><path d="M820,294 L584,268" stroke="#2E9E4F" stroke-width="9" stroke-linecap="round" opacity=".22"/><path d="M820,372 L562,346" stroke="#2E9E4F" stroke-width="9" stroke-linecap="round" opacity=".22"/>

<g transform="translate(400.0,201.6) rotate(9) scale(1.42) translate(-100,-100)">
<path d="M40,92 C40,72 68,62 100,62 C132,62 160,72 160,92 C160,118 138,140 100,140 C62,140 40,118 40,92 Z" fill="#2E9E4F" stroke="#2A2F55" stroke-width="7" stroke-linejoin="round"/>
<ellipse cx="76" cy="97" rx="17" ry="12" fill="#fff" stroke="#2A2F55" stroke-width="5"/>
<ellipse cx="124" cy="97" rx="17" ry="12" fill="#fff" stroke="#2A2F55" stroke-width="5"/>
<path d="M40,88 L14,74 M160,88 L186,74" stroke="#2A2F55" stroke-width="7" stroke-linecap="round"/>
</g>
</svg>