<svg xmlns="http://www.w3.org/2000/svg" viewBox="0 0 800 420" width="800" height="420" role="img">
<defs>
<pattern id="ht" width="14" height="14" patternUnits="userSpaceOnUse">
  <circle cx="3" cy="3" r="1.7" fill="#2A2F55" opacity=".10"/>
</pattern>
</defs>
<rect width="800" height="420" fill="#FDE7E7"/>
<rect width="800" height="420" fill="url(#ht)"/>
<path d="M820,48 L650,22" stroke="#C2283A" stroke-width="9" stroke-linecap="round" opacity=".22"/><path d="M820,126 L628,100" stroke="#C2283A" stroke-width="9" stroke-linecap="round" opacity=".22"/><path d="M820,204 L606,178" stroke="#C2283A" stroke-width="9" stroke-linecap="round" opacity=".22"/><path d="M820,282 L584,256" stroke="#C2283A" stroke-width="9" stroke-linecap="round" opacity=".22"/><path d="M820,360 L562,334" stroke="#C2283A" stroke-width="9" stroke-linecap="round" opacity=".22"/>
<polygon points="708.0,38.0 718.6,63.4 746.0,65.6 725.1,83.6 731.5,110.4 708.0,96.0 684.5,110.4 690.9,83.6 670.0,65.6 697.4,63.4" fill="#FFC83D" stroke="#2A2F55" stroke-width="5" stroke-linejoin="round" opacity=".95"/>
<g transform="translate(336.0,210.0) rotate(-3) scale(1.5) translate(-100,-100)">
<polygon points="100.0,26.0 120.0,72.5 170.4,77.1 132.3,110.5 143.5,159.9 100.0,134.0 56.5,159.9 67.7,110.5 29.6,77.1 80.0,72.5" fill="#FFC83D" stroke="#2A2F55" stroke-width="7" stroke-linejoin="round"/><circle cx="100" cy="100" r="19" fill="#C2283A" stroke="#2A2F55" stroke-width="6"/>
</g>
</svg>