<svg xmlns="http://www.w3.org/2000/svg" viewBox="0 0 800 420" width="800" height="420" role="img">
<defs>
<pattern id="ht" width="14" height="14" patternUnits="userSpaceOnUse">
  <circle cx="3" cy="3" r="1.7" fill="#2A2F55" opacity=".10"/>
</pattern>
</defs>
<rect width="800" height="420" fill="#F0E7D6"/>
<rect width="800" height="420" fill="url(#ht)"/>
<path d="M-20,62 L150,36" stroke="#8C2D3A" stroke-width="9" stroke-linecap="round" opacity=".22"/><path d="M-20,140 L172,114" stroke="#8C2D3A" stroke-width="9" stroke-linecap="round" opacity=".22"/><path d="M-20,218 L194,192" stroke="#8C2D3A" stroke-width="9" stroke-linecap="round" opacity=".22"/><path d="M-20,296 L216,270" stroke="#8C2D3A" stroke-width="9" stroke-linecap="round" opacity=".22"/><path d="M-20,374 L238,348" stroke="#8C2D3A" stroke-width="9" stroke-linecap="round" opacity=".22"/>

<g transform="translate(400.0,218.4) rotate(-8) scale(1.35) translate(-100,-100)">
<path d="M62,52 H138 V92 C138,116 122,130 100,130 C78,130 62,116 62,92 Z" fill="#FFC83D" stroke="#2A2F55" stroke-width="7" stroke-linejoin="round"/>
<path d="M62,62 H44 C36,62 34,84 46,92 L62,98 M138,62 H156 C164,62 166,84 154,92 L138,98" fill="none" stroke="#2A2F55" stroke-width="6" stroke-linecap="round"/>
<rect x="88" y="130" width="24" height="20" fill="#8C2D3A" stroke="#2A2F55" stroke-width="6"/>
<rect x="62" y="150" width="76" height="18" rx="5" fill="#8C2D3A" stroke="#2A2F55" stroke-width="7"/>
</g>
</svg>